<svg width="19" height="18" viewBox="0 0 19 18" fill="none" xmlns="http://www.w3.org/2000/svg">
<path d="M18.3372 17.6744H0.662791C0.300465 17.6744 0 17.374 0 17.0116C0 16.6493 0.300465 16.3488 0.662791 16.3488H18.3372C18.6995 16.3488 19 16.6493 19 17.0116C19 17.374 18.6995 17.6744 18.3372 17.6744Z" fill="#1A1A1A"/>
<path d="M7.51163 1.76744V17.6744H11.4884V1.76744C11.4884 0.795349 11.0907 0 9.89767 0H9.10233C7.9093 0 7.51163 0.795349 7.51163 1.76744Z" fill="#1A1A1A"/>
<path d="M1.54651 7.06977V17.6744H5.0814V7.06977C5.0814 6.09767 4.72791 5.30233 3.66744 5.30233H2.96046C1.9 5.30233 1.54651 6.09767 1.54651 7.06977Z" fill="#1A1A1A"/>
<path d="M13.9186 11.4884V17.6744H17.4535V11.4884C17.4535 10.5163 17.1 9.72093 16.0395 9.72093H15.3326C14.2721 9.72093 13.9186 10.5163 13.9186 11.4884Z" fill="#1A1A1A"/>
</svg>
