<svg width="18" height="16" viewBox="0 0 18 16" fill="none" xmlns="http://www.w3.org/2000/svg">
<path d="M17.0232 4.10142H12.1015C11.7575 4.10142 11.484 3.82799 11.484 3.484C11.484 3.14001 11.7575 2.86658 12.1015 2.86658H17.0232C17.3672 2.86658 17.6406 3.14001 17.6406 3.484C17.6406 3.82799 17.3672 4.10142 17.0232 4.10142Z" fill="white"/>
<path d="M3.89855 4.10142H0.617418C0.273428 4.10142 0 3.82799 0 3.484C0 3.14001 0.273428 2.86658 0.617418 2.86658H3.89855C4.24254 2.86658 4.51597 3.14001 4.51597 3.484C4.51597 3.82799 4.23372 4.10142 3.89855 4.10142Z" fill="white"/>
<path d="M7.17945 6.968C9.10361 6.968 10.6635 5.40816 10.6635 3.484C10.6635 1.55984 9.10361 0 7.17945 0C5.25529 0 3.69545 1.55984 3.69545 3.484C3.69545 5.40816 5.25529 6.968 7.17945 6.968Z" fill="white"/>
<path d="M17.0231 13.1245H13.742C13.398 13.1245 13.1246 12.851 13.1246 12.507C13.1246 12.1631 13.398 11.8896 13.742 11.8896H17.0231C17.3671 11.8896 17.6405 12.1631 17.6405 12.507C17.6405 12.851 17.3671 13.1245 17.0231 13.1245Z" fill="white"/>
<path d="M5.53912 13.1245H0.617418C0.273428 13.1245 0 12.851 0 12.507C0 12.1631 0.273428 11.8896 0.617418 11.8896H5.53912C5.88311 11.8896 6.15654 12.1631 6.15654 12.507C6.15654 12.851 5.87429 13.1245 5.53912 13.1245Z" fill="white"/>
<path d="M10.461 15.9999C12.3851 15.9999 13.945 14.4401 13.945 12.5159C13.945 10.5917 12.3851 9.0319 10.461 9.0319C8.5368 9.0319 6.97696 10.5917 6.97696 12.5159C6.97696 14.4401 8.5368 15.9999 10.461 15.9999Z" fill="white"/>
</svg>
