<svg width="836" height="162" viewBox="0 0 836 162" fill="none" xmlns="http://www.w3.org/2000/svg">
<path d="M2.79314 144.02C39.3847 141.246 69.4746 124.332 113.135 121.489C136.405 119.974 155.048 122.923 175.847 127.506C196.647 132.088 192.575 134.067 239.353 137.6C277.956 140.515 288.054 150.551 325.88 151.759C363.707 152.966 381.203 115.176 421.14 118.331C461.076 121.485 469.056 113.329 506.597 128.787C544.137 144.244 578.821 131.909 625.947 128.755C673.072 125.6 685.346 135.387 707.711 134.125C730.075 132.863 750.212 156.721 769.382 160.191C788.551 163.661 793.987 151.056 834.723 151.056" stroke="#9BA6FA" stroke-width="1.66414" stroke-linecap="round" stroke-linejoin="round"/>
<path d="M0.832229 36.2629C48.8746 32.8065 45.6718 53.3392 108.928 56.3348C172.183 59.3304 189.799 38.3612 218.624 32.3701C247.45 26.3789 260.261 -0.922094 308.303 0.921345C356.346 2.76478 380.367 21.2357 420.402 23.54C460.437 25.8443 468.444 41.1264 506.078 52.4175C543.711 63.7085 578.141 65.0911 625.383 62.7868C672.624 60.4825 685.436 37.1847 707.856 36.2629C730.275 35.3412 750.293 46.4512 769.51 48.9859C788.727 51.5206 794.332 62.7868 835.168 62.7868" stroke="#E95C5C" stroke-width="1.66414" stroke-linecap="round" stroke-linejoin="round"/>
</svg>
