<svg width="24" height="31" viewBox="0 0 24 31" fill="none" xmlns="http://www.w3.org/2000/svg">
<path d="M20.2507 15.7148C20.1499 15.6044 20.0304 15.517 19.8991 15.4576C19.7677 15.3981 19.627 15.3678 19.485 15.3684C19.343 15.3689 19.2025 15.4003 19.0715 15.4608C18.9406 15.5213 18.8217 15.6096 18.7216 15.7208C18.6216 15.8319 18.5423 15.9638 18.4885 16.1087C18.4346 16.2537 18.4071 16.4089 18.4076 16.5656C18.4081 16.7222 18.4366 16.8772 18.4914 17.0218C18.5462 17.1663 18.6263 17.2975 18.727 17.4079C19.6414 18.4061 20.3672 19.5945 20.8625 20.9044C21.3577 22.2142 21.6126 23.6194 21.6122 25.0387C21.6122 26.4933 17.8193 28.6156 11.8868 28.6156C5.95422 28.6156 2.16128 26.4933 2.16128 25.0387C2.15957 23.6288 2.40968 22.2323 2.89733 20.9291C3.38497 19.6259 4.10059 18.4415 5.00328 17.4436C5.20455 17.2203 5.31752 16.9181 5.31752 16.6031C5.31752 16.2881 5.20455 15.9859 5.00328 15.7625C4.80082 15.5404 4.52694 15.4158 4.24145 15.4158C3.95597 15.4158 3.68209 15.5404 3.47963 15.7625C2.37212 16.9777 1.49426 18.4233 0.896962 20.0157C0.299663 21.608 -0.00519461 23.3153 6.6963e-05 25.0387C6.6963e-05 28.9137 6.12712 31.0002 11.8868 31.0002C17.6464 31.0002 23.7734 28.9137 23.7734 25.0387C23.7776 23.3042 23.4682 21.5862 22.8633 19.9852C22.2584 18.3842 21.3702 16.9324 20.2507 15.7148Z" fill="#111111"/>
<path d="M11.8869 16.6924C13.3829 16.6924 14.8454 16.2029 16.0894 15.2858C17.3333 14.3687 18.3028 13.0652 18.8753 11.5401C19.4479 10.0151 19.5977 8.33693 19.3058 6.71793C19.0139 5.09893 18.2935 3.61178 17.2356 2.44454C16.1777 1.27731 14.8299 0.482413 13.3626 0.160373C11.8953 -0.161666 10.3743 0.00361626 8.99215 0.635319C7.60997 1.26702 6.42859 2.33677 5.59742 3.70929C4.76625 5.08182 4.32261 6.69547 4.32261 8.34618C4.32261 10.5597 5.11956 12.6826 6.53813 14.2478C7.95671 15.813 9.88071 16.6924 11.8869 16.6924ZM11.8869 2.38463C12.9555 2.38463 14.0001 2.73427 14.8886 3.38933C15.7772 4.0444 16.4697 4.97546 16.8786 6.0648C17.2876 7.15413 17.3946 8.3528 17.1861 9.50923C16.9776 10.6657 16.463 11.7279 15.7074 12.5616C14.9518 13.3954 13.989 13.9632 12.941 14.1932C11.8929 14.4232 10.8065 14.3052 9.81922 13.8539C8.83194 13.4027 7.9881 12.6386 7.39441 11.6582C6.80071 10.6779 6.48383 9.52527 6.48383 8.34618C6.48383 6.76508 7.05308 5.24874 8.06634 4.13073C9.07961 3.01272 10.4539 2.38463 11.8869 2.38463Z" fill="#111111"/>
</svg>
