<svg width="24" height="24" viewBox="0 0 24 24" fill="none" xmlns="http://www.w3.org/2000/svg">
<path d="M12 4L10.8522 5.91303C9.94978 7.41704 9.49857 8.16905 9.49857 9C9.49857 9.83095 9.94978 10.583 10.8522 12.087L11.5713 13.2854C11.7627 13.6045 11.8585 13.7641 12 13.7641C12.1415 13.7641 12.2373 13.6045 12.4287 13.2854L13.1478 12.087C14.0502 10.583 14.5014 9.83095 14.5014 9C14.5014 8.16905 14.0502 7.41704 13.1478 5.91303L12 4ZM12 4V2" stroke="#222222"/>
<path d="M20.16 12.5981L17.9294 12.5606C16.1757 12.5311 15.2988 12.5163 14.5792 12.9318C13.8596 13.3473 13.4339 14.114 12.5826 15.6475L11.9043 16.8695C11.7236 17.1949 11.6333 17.3575 11.7041 17.4801C11.7749 17.6027 11.9609 17.6058 12.333 17.6121L13.7304 17.6356C15.4841 17.6651 16.361 17.6799 17.0806 17.2644C17.8003 16.8489 18.2259 16.0821 19.0772 14.5486L20.16 12.5981ZM20.16 12.5981L21.8921 11.5981" stroke="#222222"/>
<path d="M3.83996 12.5981L6.0706 12.5606C7.82432 12.5311 8.70118 12.5163 9.4208 12.9318C10.1404 13.3473 10.5661 14.114 11.4174 15.6475L12.0957 16.8695C12.2764 17.1949 12.3667 17.3575 12.2959 17.4801C12.2251 17.6027 12.0391 17.6058 11.667 17.6121L10.2696 17.6356C8.51586 17.6651 7.639 17.6799 6.91937 17.2644C6.19975 16.8489 5.77409 16.0821 4.92278 14.5486L3.83996 12.5981ZM3.83996 12.5981L2.10791 11.5981" stroke="#222222"/>
<path d="M12 15V22.5" stroke="#222222"/>
</svg>
