<svg width="834" height="163" viewBox="0 0 834 163" fill="none" xmlns="http://www.w3.org/2000/svg">
<path d="M0.832367 89.4993C37.4418 88.115 67.5463 79.674 111.228 78.2552C134.51 77.499 153.161 78.9708 173.971 81.2577C194.781 83.5446 190.707 84.5321 237.508 86.2952C276.129 87.7501 286.232 92.7587 324.077 93.3614C361.922 93.9641 379.022 73.7706 418.979 75.345C458.935 76.9193 482.493 39.1773 520.052 46.8915C574.091 46.8915 577.141 83.4554 624.29 81.8811C671.438 80.3067 683.718 85.1908 706.094 84.5611C728.469 83.9313 748.615 95.8381 767.794 97.5698C786.974 99.3016 792.412 93.0107 833.168 93.0107" stroke="#9BA6FA" stroke-width="1.66414" stroke-linecap="round" stroke-linejoin="round"/>
<path d="M0.832367 134.429C48.8827 130.972 84.8662 118.423 125.883 143.433C195.441 185.847 234.108 140.421 262.938 134.429C288.448 115.422 286.917 92.0687 334.967 93.9124C399.493 49.8953 383.987 38.3902 437.508 5.37687C477.55 7.68155 498.909 -5.91587 536.548 5.37706C578.565 30.8873 581.336 40.3364 628.585 38.0317C675.835 35.727 662.599 59.3966 703.667 44.6729C729.126 35.5455 744.632 68.4026 759.638 77.4061C779.146 92.9124 789.324 147.434 830.166 147.434" stroke="#F3F575" stroke-width="1.66414" stroke-linecap="round" stroke-linejoin="round"/>
</svg>
