<svg width="30" height="30" viewBox="0 0 30 30" fill="none" xmlns="http://www.w3.org/2000/svg">
<mask id="path-1-inside-1_31_70" fill="white">
<path fill-rule="evenodd" clip-rule="evenodd" d="M0 15C0 6.71573 6.71573 0 15 0C23.2843 0 30 6.71573 30 15C30 23.2843 23.2843 30 15 30C6.71573 30 0 23.2843 0 15ZM14.8721 9.06977C14.1895 9.06977 13.5618 9.3556 13.0925 9.84002C12.8358 10.1051 12.6285 10.4282 12.4906 10.7916C12.2857 11.3321 11.6814 11.604 11.141 11.3991C10.6006 11.1941 10.3287 10.5899 10.5336 10.0495C10.7721 9.42056 11.1335 8.85421 11.5892 8.38375C12.4246 7.52133 13.5837 6.97674 14.8721 6.97674C17.4983 6.97674 19.5354 9.20322 19.5354 11.8335C19.5354 14.1061 18.0237 16.065 15.9186 16.5672V17.7907C15.9186 18.3687 15.4501 18.8372 14.8721 18.8372C14.2941 18.8372 13.8256 18.3687 13.8256 17.7907V16.3413C13.8256 15.338 14.6201 14.6989 15.3556 14.5485C16.5077 14.3129 17.4424 13.2186 17.4424 11.8335C17.4424 10.2551 16.2409 9.06977 14.8721 9.06977ZM16.3952 22.3256C16.3952 23.0962 15.7705 23.7209 14.9998 23.7209C14.2292 23.7209 13.6045 23.0962 13.6045 22.3256C13.6045 21.555 14.2292 20.9302 14.9998 20.9302C15.7705 20.9302 16.3952 21.555 16.3952 22.3256Z"/>
</mask>
<path fill-rule="evenodd" clip-rule="evenodd" d="M0 15C0 6.71573 6.71573 0 15 0C23.2843 0 30 6.71573 30 15C30 23.2843 23.2843 30 15 30C6.71573 30 0 23.2843 0 15ZM14.8721 9.06977C14.1895 9.06977 13.5618 9.3556 13.0925 9.84002C12.8358 10.1051 12.6285 10.4282 12.4906 10.7916C12.2857 11.3321 11.6814 11.604 11.141 11.3991C10.6006 11.1941 10.3287 10.5899 10.5336 10.0495C10.7721 9.42056 11.1335 8.85421 11.5892 8.38375C12.4246 7.52133 13.5837 6.97674 14.8721 6.97674C17.4983 6.97674 19.5354 9.20322 19.5354 11.8335C19.5354 14.1061 18.0237 16.065 15.9186 16.5672V17.7907C15.9186 18.3687 15.4501 18.8372 14.8721 18.8372C14.2941 18.8372 13.8256 18.3687 13.8256 17.7907V16.3413C13.8256 15.338 14.6201 14.6989 15.3556 14.5485C16.5077 14.3129 17.4424 13.2186 17.4424 11.8335C17.4424 10.2551 16.2409 9.06977 14.8721 9.06977ZM16.3952 22.3256C16.3952 23.0962 15.7705 23.7209 14.9998 23.7209C14.2292 23.7209 13.6045 23.0962 13.6045 22.3256C13.6045 21.555 14.2292 20.9302 14.9998 20.9302C15.7705 20.9302 16.3952 21.555 16.3952 22.3256Z" fill="white"/>
<path d="M13.0925 9.84002L13.4517 10.1879V10.1879L13.0925 9.84002ZM12.4906 10.7916L12.9581 10.9689L12.4906 10.7916ZM11.141 11.3991L11.3183 10.9315H11.3183L11.141 11.3991ZM10.5336 10.0495L10.0661 9.87215V9.87216L10.5336 10.0495ZM11.5892 8.38375L11.9483 8.73164V8.73164L11.5892 8.38375ZM15.9186 16.5672L15.8025 16.0809L15.4186 16.1725V16.5672H15.9186ZM15.3556 14.5485L15.2554 14.0586H15.2554L15.3556 14.5485ZM15 -0.5C6.43959 -0.5 -0.5 6.43959 -0.5 15H0.5C0.5 6.99187 6.99187 0.5 15 0.5V-0.5ZM30.5 15C30.5 6.43959 23.5604 -0.5 15 -0.5V0.5C23.0081 0.5 29.5 6.99187 29.5 15H30.5ZM15 30.5C23.5604 30.5 30.5 23.5604 30.5 15H29.5C29.5 23.0081 23.0081 29.5 15 29.5V30.5ZM-0.5 15C-0.5 23.5604 6.43959 30.5 15 30.5V29.5C6.99187 29.5 0.5 23.0081 0.5 15H-0.5ZM13.4517 10.1879C13.8333 9.79397 14.334 9.56977 14.8721 9.56977V8.56977C14.045 8.56977 13.2903 8.91723 12.7334 9.49214L13.4517 10.1879ZM12.9581 10.9689C13.0719 10.6689 13.2425 10.4039 13.4517 10.1879L12.7334 9.49213C12.4291 9.80624 12.185 10.1875 12.0231 10.6143L12.9581 10.9689ZM10.9637 11.8666C11.7623 12.1694 12.6553 11.7676 12.9581 10.9689L12.0231 10.6143C11.9161 10.8966 11.6005 11.0386 11.3183 10.9315L10.9637 11.8666ZM10.0661 9.87216C9.76324 10.6708 10.1651 11.5637 10.9637 11.8666L11.3183 10.9315C11.0361 10.8245 10.8941 10.509 11.0011 10.2268L10.0661 9.87216ZM11.2301 8.03587C10.7268 8.5554 10.3287 9.17985 10.0661 9.87215L11.0011 10.2268C11.2156 9.66127 11.5401 9.15302 11.9483 8.73164L11.2301 8.03587ZM14.8721 6.47674C13.4389 6.47674 12.1528 7.08325 11.2301 8.03587L11.9483 8.73164C12.6964 7.95942 13.7286 7.47674 14.8721 7.47674V6.47674ZM20.0354 11.8335C20.0354 8.95361 17.8002 6.47674 14.8721 6.47674V7.47674C17.1963 7.47674 19.0354 9.45282 19.0354 11.8335H20.0354ZM16.0346 17.0536C18.3767 16.4948 20.0354 14.3251 20.0354 11.8335H19.0354C19.0354 13.887 17.6707 15.6351 15.8025 16.0809L16.0346 17.0536ZM16.4186 17.7907V16.5672H15.4186V17.7907H16.4186ZM14.8721 19.3372C15.7262 19.3372 16.4186 18.6448 16.4186 17.7907H15.4186C15.4186 18.0925 15.1739 18.3372 14.8721 18.3372V19.3372ZM13.3256 17.7907C13.3256 18.6448 14.018 19.3372 14.8721 19.3372V18.3372C14.5703 18.3372 14.3256 18.0925 14.3256 17.7907H13.3256ZM13.3256 16.3413V17.7907H14.3256V16.3413H13.3256ZM15.2554 14.0586C14.3563 14.2425 13.3256 15.0364 13.3256 16.3413H14.3256C14.3256 15.6396 14.8839 15.1553 15.4558 15.0383L15.2554 14.0586ZM16.9424 11.8335C16.9424 12.9932 16.1632 13.873 15.2554 14.0586L15.4558 15.0383C16.8523 14.7528 17.9424 13.444 17.9424 11.8335H16.9424ZM14.8721 9.56977C15.9434 9.56977 16.9424 10.5093 16.9424 11.8335H17.9424C17.9424 10.0008 16.5384 8.56977 14.8721 8.56977V9.56977ZM14.9998 24.2209C16.0466 24.2209 16.8952 23.3724 16.8952 22.3256H15.8952C15.8952 22.82 15.4944 23.2209 14.9998 23.2209V24.2209ZM13.1045 22.3256C13.1045 23.3724 13.9531 24.2209 14.9998 24.2209V23.2209C14.5053 23.2209 14.1045 22.82 14.1045 22.3256H13.1045ZM14.9998 20.4302C13.9531 20.4302 13.1045 21.2788 13.1045 22.3256H14.1045C14.1045 21.8311 14.5054 21.4302 14.9998 21.4302V20.4302ZM16.8952 22.3256C16.8952 21.2788 16.0466 20.4302 14.9998 20.4302V21.4302C15.4943 21.4302 15.8952 21.8311 15.8952 22.3256H16.8952Z" fill="#111111" mask="url(#path-1-inside-1_31_70)"/>
</svg>
