<svg width="25" height="29" viewBox="0 0 25 29" fill="none" xmlns="http://www.w3.org/2000/svg">
<path d="M20.7744 17.8945L20.7758 17.8968C21.2444 18.6659 21.3271 19.5734 21.0161 20.3988C20.7021 21.232 20.0547 21.8642 19.2189 22.1388L19.216 22.1397C16.5322 23.039 13.7079 23.4823 10.8818 23.4823C8.05577 23.4823 5.23236 23.039 2.5499 22.1264L2.54887 22.126C1.63057 21.8158 0.958366 21.1838 0.679966 20.4066L0.679983 20.4066L0.678506 20.4026C0.38513 19.6046 0.481749 18.7217 0.975547 17.8939C0.975774 17.8936 0.976001 17.8932 0.976228 17.8928L2.40034 15.5381L2.40039 15.5381L2.40449 15.5311C2.58419 15.2231 2.73968 14.8015 2.84989 14.3962C2.96 13.9912 3.03901 13.5505 3.03901 13.1976V9.62646C3.03901 6.55609 4.82558 3.89177 7.4123 2.60504L7.5543 2.53441L7.6317 2.39598C8.27625 1.24324 9.48949 0.513274 10.8395 0.513274C12.208 0.513274 13.3919 1.21901 14.0343 2.3557L14.114 2.49661L14.2601 2.56634C16.8981 3.82572 18.7247 6.51558 18.7247 9.62646V13.1976C18.7247 13.5505 18.8037 13.9911 18.9136 14.3973C19.0239 14.8048 19.1788 15.2274 19.3562 15.5399L19.356 15.54L19.3629 15.5514L20.7744 17.8945Z" fill="white" stroke="black"/>
<path d="M7.76979 26.8404C7.46189 26.478 7.19858 26.0263 6.99376 25.5336C7.31534 25.5851 7.65363 25.6354 7.99425 25.671C8.94107 25.7753 9.90806 25.8382 10.878 25.8382C11.8324 25.8382 12.7838 25.7752 13.715 25.6708L13.715 25.6708L13.7188 25.6703C13.8094 25.6595 13.9092 25.6495 14.0138 25.639C14.234 25.6168 14.4758 25.5925 14.7006 25.5538C13.9275 27.3472 12.4499 28.4867 10.8453 28.4867C9.73132 28.4867 8.59962 27.9192 7.7856 26.86L7.77794 26.85L7.76979 26.8404Z" fill="white" stroke="black"/>
<circle cx="21.6322" cy="22.8407" r="3.07965" fill="#FF3737"/>
</svg>
