<svg width="25" height="28" viewBox="0 0 25 28" fill="none" xmlns="http://www.w3.org/2000/svg">
<path d="M21.0412 17.486L19.6412 15.162C19.3472 14.644 19.0812 13.664 19.0812 13.09V9.548C19.0812 6.258 17.1492 3.416 14.3632 2.086C13.6352 0.798 12.2912 0 10.7512 0C9.22515 0 7.85315 0.826 7.12515 2.128C4.39515 3.486 2.50515 6.3 2.50515 9.548V13.09C2.50515 13.664 2.23915 14.644 1.94515 15.148L0.531155 17.486C-0.0288455 18.424 -0.154846 19.46 0.195154 20.412C0.531154 21.35 1.32915 22.078 2.36515 22.428C5.08115 23.352 7.93716 23.8 10.7932 23.8C13.6492 23.8 16.5052 23.352 19.2212 22.442C20.2012 22.12 20.9572 21.378 21.3212 20.412C21.6852 19.446 21.5872 18.382 21.0412 17.486Z" fill="white"/>
<path d="M14.7275 25.214C14.1395 26.838 12.5855 28 10.7655 28C9.65954 28 8.56754 27.552 7.79754 26.754C7.34954 26.334 7.01354 25.774 6.81754 25.2C6.99954 25.228 7.18154 25.242 7.37754 25.27C7.69954 25.312 8.03554 25.354 8.37154 25.382C9.16954 25.452 9.98154 25.494 10.7935 25.494C11.5915 25.494 12.3895 25.452 13.1735 25.382C13.4675 25.354 13.7615 25.34 14.0415 25.298C14.2655 25.27 14.4895 25.242 14.7275 25.214Z" fill="white"/>
<circle cx="21.4561" cy="22.6545" r="3.05455" fill="#FF3737"/>
</svg>
