<svg width="24" height="31" viewBox="0 0 24 31" fill="none" xmlns="http://www.w3.org/2000/svg">
<path d="M20.2507 15.7146C20.1499 15.6042 20.0304 15.5168 19.8991 15.4573C19.7677 15.3979 19.627 15.3676 19.485 15.3681C19.343 15.3687 19.2025 15.4001 19.0715 15.4605C18.9406 15.521 18.8217 15.6093 18.7216 15.7205C18.6216 15.8317 18.5423 15.9635 18.4885 16.1085C18.4346 16.2534 18.4071 16.4086 18.4076 16.5653C18.4081 16.722 18.4366 16.877 18.4914 17.0215C18.5462 17.166 18.6263 17.2972 18.727 17.4076C19.6414 18.4058 20.3672 19.5943 20.8625 20.9041C21.3577 22.2139 21.6126 23.6192 21.6122 25.0384C21.6122 26.493 17.8193 28.6154 11.8868 28.6154C5.95422 28.6154 2.16128 26.493 2.16128 25.0384C2.15957 23.6285 2.40968 22.2321 2.89733 20.9289C3.38497 19.6257 4.10059 18.4413 5.00328 17.4434C5.20455 17.22 5.31752 16.9178 5.31752 16.6028C5.31752 16.2878 5.20455 15.9856 5.00328 15.7622C4.80082 15.5402 4.52694 15.4155 4.24145 15.4155C3.95597 15.4155 3.68209 15.5402 3.47963 15.7622C2.37212 16.9774 1.49426 18.4231 0.896962 20.0154C0.299663 21.6078 -0.00519461 23.3151 6.6963e-05 25.0384C6.6963e-05 28.9134 6.12712 31 11.8868 31C17.6464 31 23.7734 28.9134 23.7734 25.0384C23.7776 23.3039 23.4682 21.5859 22.8633 19.9849C22.2584 18.384 21.3702 16.9322 20.2507 15.7146Z" fill="white"/>
<path d="M11.8866 16.6924C13.3827 16.6924 14.8452 16.2029 16.0891 15.2858C17.333 14.3687 18.3026 13.0652 18.8751 11.5401C19.4476 10.0151 19.5974 8.33693 19.3055 6.71793C19.0137 5.09893 18.2932 3.61178 17.2354 2.44454C16.1775 1.27731 14.8297 0.482413 13.3623 0.160373C11.895 -0.161666 10.3741 0.00361626 8.99191 0.635319C7.60972 1.26702 6.42834 2.33677 5.59717 3.70929C4.766 5.08182 4.32237 6.69547 4.32237 8.34618C4.32237 10.5597 5.11931 12.6826 6.53789 14.2478C7.95646 15.813 9.88046 16.6924 11.8866 16.6924ZM11.8866 2.38463C12.9552 2.38463 13.9999 2.73427 14.8884 3.38933C15.7769 4.0444 16.4694 4.97546 16.8784 6.0648C17.2873 7.15413 17.3943 8.3528 17.1859 9.50923C16.9774 10.6657 16.4628 11.7279 15.7072 12.5616C14.9515 13.3954 13.9888 13.9632 12.9407 14.1932C11.8926 14.4232 10.8062 14.3052 9.81897 13.8539C8.83169 13.4027 7.98785 12.6386 7.39416 11.6582C6.80047 10.6779 6.48358 9.52527 6.48358 8.34618C6.48358 6.76508 7.05283 5.24874 8.0661 4.13073C9.07936 3.01272 10.4536 2.38463 11.8866 2.38463Z" fill="white"/>
</svg>
